%TF.GenerationSoftware,KiCad,Pcbnew,9.0.2*%
%TF.CreationDate,2025-07-05T11:42:38+02:00*%
%TF.ProjectId,test-stef_6_inter,74657374-2d73-4746-9566-5f365f696e74,rev?*%
%TF.SameCoordinates,Original*%
%TF.FileFunction,Soldermask,Top*%
%TF.FilePolarity,Negative*%
%FSLAX46Y46*%
G04 Gerber Fmt 4.6, Leading zero omitted, Abs format (unit mm)*
G04 Created by KiCad (PCBNEW 9.0.2) date 2025-07-05 11:42:38*
%MOMM*%
%LPD*%
G01*
G04 APERTURE LIST*
%ADD10C,3.050000*%
%ADD11C,4.000000*%
%ADD12O,1.800000X1.800000*%
%ADD13O,1.500000X1.500000*%
%ADD14O,4.000000X4.000000*%
%ADD15O,1.700000X1.700000*%
%ADD16R,3.500000X1.700000*%
%ADD17R,1.700000X1.700000*%
%ADD18O,3.400000X1.700000*%
%ADD19R,1.700000X3.500000*%
%ADD20O,3.000000X1.500000*%
%ADD21O,1.500000X3.000000*%
%ADD22R,2.000000X3.200000*%
G04 APERTURE END LIST*
D10*
%TO.C,SW5*%
X183777000Y-115040000D03*
D11*
X187587000Y-117580000D03*
D10*
X190127000Y-112500000D03*
%TD*%
%TO.C,SW1*%
X164650000Y-97000000D03*
D11*
X168460000Y-99540000D03*
D10*
X171000000Y-94460000D03*
%TD*%
D12*
%TO.C,U1*%
X136721000Y-73282000D03*
D13*
X137021000Y-76312000D03*
D14*
X139446000Y-85282000D03*
X139446000Y-108282000D03*
D13*
X141871000Y-76312000D03*
D12*
X142171000Y-73282000D03*
D15*
X130556000Y-73152000D03*
D16*
X129656000Y-73152000D03*
D15*
X130556000Y-75692000D03*
D16*
X129656000Y-75692000D03*
D17*
X130556000Y-78232000D03*
D16*
X129656000Y-78232000D03*
D15*
X130556000Y-80772000D03*
D16*
X129656000Y-80772000D03*
D15*
X130556000Y-83312000D03*
D16*
X129656000Y-83312000D03*
D15*
X130556000Y-85852000D03*
D16*
X129656000Y-85852000D03*
D15*
X130556000Y-88392000D03*
D16*
X129656000Y-88392000D03*
D17*
X130556000Y-90932000D03*
D16*
X129656000Y-90932000D03*
D15*
X130556000Y-93472000D03*
D16*
X129656000Y-93472000D03*
D15*
X130556000Y-96012000D03*
D16*
X129656000Y-96012000D03*
D15*
X130556000Y-98552000D03*
D16*
X129656000Y-98552000D03*
D15*
X130556000Y-101092000D03*
D16*
X129656000Y-101092000D03*
D17*
X130556000Y-103632000D03*
D16*
X129656000Y-103632000D03*
D15*
X130556000Y-106172000D03*
D16*
X129656000Y-106172000D03*
D15*
X130556000Y-108712000D03*
D16*
X129656000Y-108712000D03*
D15*
X130556000Y-111252000D03*
D16*
X129656000Y-111252000D03*
D15*
X130556000Y-113792000D03*
D16*
X129656000Y-113792000D03*
D17*
X130556000Y-116332000D03*
D16*
X129656000Y-116332000D03*
D15*
X130556000Y-118872000D03*
D16*
X129656000Y-118872000D03*
D15*
X130556000Y-121412000D03*
D16*
X129656000Y-121412000D03*
D18*
X148336000Y-121412000D03*
D16*
X149236000Y-121412000D03*
D18*
X148336000Y-118872000D03*
D16*
X149236000Y-118872000D03*
D17*
X148336000Y-116332000D03*
D16*
X149236000Y-116332000D03*
D18*
X148336000Y-113792000D03*
D16*
X149236000Y-113792000D03*
D18*
X148336000Y-111252000D03*
D16*
X149236000Y-111252000D03*
D15*
X148336000Y-108712000D03*
D16*
X149236000Y-108712000D03*
D15*
X148336000Y-106172000D03*
D16*
X149236000Y-106172000D03*
D17*
X148336000Y-103632000D03*
D16*
X149236000Y-103632000D03*
D15*
X148336000Y-101092000D03*
D16*
X149236000Y-101092000D03*
D15*
X148336000Y-98552000D03*
D16*
X149236000Y-98552000D03*
D18*
X148336000Y-96012000D03*
D16*
X149236000Y-96012000D03*
D18*
X148336000Y-93472000D03*
D16*
X149236000Y-93472000D03*
D17*
X148336000Y-90932000D03*
D16*
X149236000Y-90932000D03*
D18*
X148336000Y-88392000D03*
D16*
X149236000Y-88392000D03*
D15*
X148336000Y-85852000D03*
D16*
X149236000Y-85852000D03*
D15*
X148336000Y-83312000D03*
D16*
X149236000Y-83312000D03*
D15*
X148336000Y-80772000D03*
D16*
X149236000Y-80772000D03*
D18*
X148336000Y-78232000D03*
D16*
X149236000Y-78232000D03*
D15*
X148336000Y-75692000D03*
D16*
X149236000Y-75692000D03*
D15*
X148336000Y-73152000D03*
D16*
X149236000Y-73152000D03*
D15*
X136906000Y-121182000D03*
D19*
X136906000Y-122082000D03*
D17*
X139446000Y-121182000D03*
D19*
X139446000Y-122082000D03*
D15*
X141986000Y-121182000D03*
D19*
X141986000Y-122082000D03*
%TD*%
D20*
%TO.C,D5*%
X184031000Y-122660000D03*
X191651000Y-122660000D03*
%TD*%
%TO.C,D1*%
X164650000Y-103985000D03*
X172270000Y-103985000D03*
%TD*%
D10*
%TO.C,SW2*%
X183650000Y-97000000D03*
D11*
X187460000Y-99540000D03*
D10*
X190000000Y-94460000D03*
%TD*%
D21*
%TO.C,SW3*%
X182245000Y-88000000D03*
X187245000Y-88000000D03*
X184745000Y-88000000D03*
D22*
X179145000Y-80500000D03*
X190345000Y-80500000D03*
D20*
X187245000Y-73500000D03*
X182245000Y-73500000D03*
%TD*%
%TO.C,D4*%
X164650000Y-122660000D03*
X172270000Y-122660000D03*
%TD*%
%TO.C,D2*%
X183904000Y-103985000D03*
X191524000Y-103985000D03*
%TD*%
D10*
%TO.C,SW4*%
X164650000Y-115040000D03*
D11*
X168460000Y-117580000D03*
D10*
X171000000Y-112500000D03*
%TD*%
M02*
