%TF.GenerationSoftware,KiCad,Pcbnew,9.0.2*%
%TF.CreationDate,2025-07-05T11:42:38+02:00*%
%TF.ProjectId,test-stef_6_inter,74657374-2d73-4746-9566-5f365f696e74,rev?*%
%TF.SameCoordinates,Original*%
%TF.FileFunction,Soldermask,Bot*%
%TF.FilePolarity,Negative*%
%FSLAX46Y46*%
G04 Gerber Fmt 4.6, Leading zero omitted, Abs format (unit mm)*
G04 Created by KiCad (PCBNEW 9.0.2) date 2025-07-05 11:42:38*
%MOMM*%
%LPD*%
G01*
G04 APERTURE LIST*
G04 Aperture macros list*
%AMRoundRect*
0 Rectangle with rounded corners*
0 $1 Rounding radius*
0 $2 $3 $4 $5 $6 $7 $8 $9 X,Y pos of 4 corners*
0 Add a 4 corners polygon primitive as box body*
4,1,4,$2,$3,$4,$5,$6,$7,$8,$9,$2,$3,0*
0 Add four circle primitives for the rounded corners*
1,1,$1+$1,$2,$3*
1,1,$1+$1,$4,$5*
1,1,$1+$1,$6,$7*
1,1,$1+$1,$8,$9*
0 Add four rect primitives between the rounded corners*
20,1,$1+$1,$2,$3,$4,$5,0*
20,1,$1+$1,$4,$5,$6,$7,0*
20,1,$1+$1,$6,$7,$8,$9,0*
20,1,$1+$1,$8,$9,$2,$3,0*%
G04 Aperture macros list end*
%ADD10C,3.050000*%
%ADD11C,4.000000*%
%ADD12RoundRect,0.250000X-1.025000X-1.000000X1.025000X-1.000000X1.025000X1.000000X-1.025000X1.000000X0*%
%ADD13O,1.800000X1.800000*%
%ADD14O,1.500000X1.500000*%
%ADD15O,4.000000X4.000000*%
%ADD16O,1.700000X1.700000*%
%ADD17R,1.700000X1.700000*%
%ADD18O,3.400000X1.700000*%
%ADD19O,3.000000X1.500000*%
%ADD20O,1.500000X3.000000*%
%ADD21R,2.000000X3.200000*%
G04 APERTURE END LIST*
D10*
%TO.C,SW5*%
X183777000Y-115040000D03*
D11*
X187587000Y-117580000D03*
D10*
X190127000Y-112500000D03*
D12*
X180502000Y-115040000D03*
X193429000Y-112500000D03*
%TD*%
D10*
%TO.C,SW1*%
X164650000Y-97000000D03*
D11*
X168460000Y-99540000D03*
D10*
X171000000Y-94460000D03*
D12*
X161375000Y-97000000D03*
X174302000Y-94460000D03*
%TD*%
D13*
%TO.C,U1*%
X136721000Y-73282000D03*
D14*
X137021000Y-76312000D03*
D15*
X139446000Y-85282000D03*
X139446000Y-108282000D03*
D14*
X141871000Y-76312000D03*
D13*
X142171000Y-73282000D03*
D16*
X130556000Y-73152000D03*
X130556000Y-75692000D03*
D17*
X130556000Y-78232000D03*
D16*
X130556000Y-80772000D03*
X130556000Y-83312000D03*
X130556000Y-85852000D03*
X130556000Y-88392000D03*
D17*
X130556000Y-90932000D03*
D16*
X130556000Y-93472000D03*
X130556000Y-96012000D03*
X130556000Y-98552000D03*
X130556000Y-101092000D03*
D17*
X130556000Y-103632000D03*
D16*
X130556000Y-106172000D03*
X130556000Y-108712000D03*
X130556000Y-111252000D03*
X130556000Y-113792000D03*
D17*
X130556000Y-116332000D03*
D16*
X130556000Y-118872000D03*
X130556000Y-121412000D03*
D18*
X148336000Y-121412000D03*
X148336000Y-118872000D03*
D17*
X148336000Y-116332000D03*
D18*
X148336000Y-113792000D03*
X148336000Y-111252000D03*
D16*
X148336000Y-108712000D03*
X148336000Y-106172000D03*
D17*
X148336000Y-103632000D03*
D16*
X148336000Y-101092000D03*
X148336000Y-98552000D03*
D18*
X148336000Y-96012000D03*
X148336000Y-93472000D03*
D17*
X148336000Y-90932000D03*
D18*
X148336000Y-88392000D03*
D16*
X148336000Y-85852000D03*
X148336000Y-83312000D03*
X148336000Y-80772000D03*
D18*
X148336000Y-78232000D03*
D16*
X148336000Y-75692000D03*
X148336000Y-73152000D03*
X136906000Y-121182000D03*
D17*
X139446000Y-121182000D03*
D16*
X141986000Y-121182000D03*
%TD*%
D19*
%TO.C,D5*%
X184031000Y-122660000D03*
X191651000Y-122660000D03*
%TD*%
%TO.C,D1*%
X164650000Y-103985000D03*
X172270000Y-103985000D03*
%TD*%
D10*
%TO.C,SW2*%
X183650000Y-97000000D03*
D11*
X187460000Y-99540000D03*
D10*
X190000000Y-94460000D03*
D12*
X180375000Y-97000000D03*
X193302000Y-94460000D03*
%TD*%
D20*
%TO.C,SW3*%
X182245000Y-88000000D03*
X187245000Y-88000000D03*
X184745000Y-88000000D03*
D21*
X179145000Y-80500000D03*
X190345000Y-80500000D03*
D19*
X187245000Y-73500000D03*
X182245000Y-73500000D03*
%TD*%
%TO.C,D4*%
X164650000Y-122660000D03*
X172270000Y-122660000D03*
%TD*%
%TO.C,D2*%
X183904000Y-103985000D03*
X191524000Y-103985000D03*
%TD*%
D10*
%TO.C,SW4*%
X164650000Y-115040000D03*
D11*
X168460000Y-117580000D03*
D10*
X171000000Y-112500000D03*
D12*
X161375000Y-115040000D03*
X174302000Y-112500000D03*
%TD*%
M02*
