M48
; DRILL file {KiCad 9.0.2} date 2025-07-05T11:40:45+0200
; FORMAT={-:-/ absolute / metric / decimal}
; #@! TF.CreationDate,2025-07-05T11:40:45+02:00
; #@! TF.GenerationSoftware,Kicad,Pcbnew,9.0.2
; #@! TF.FileFunction,Plated,1,2,PTH
FMAT,2
METRIC
; #@! TA.AperFunction,Plated,PTH,ComponentDrill
T1C0.800
; #@! TA.AperFunction,Plated,PTH,ComponentDrill
T2C1.000
; #@! TA.AperFunction,Plated,PTH,ComponentDrill
T3C1.020
; #@! TA.AperFunction,Plated,PTH,ComponentDrill
T4C1.500
%
G90
G05
T1
X164.65Y-103.985
X164.65Y-122.66
X172.27Y-103.985
X172.27Y-122.66
X183.904Y-103.985
X184.031Y-122.66
X191.524Y-103.985
X191.651Y-122.66
T2
X182.245Y-73.5
X182.245Y-88.0
X184.745Y-88.0
X187.245Y-73.5
X187.245Y-88.0
T3
X130.556Y-73.152
X130.556Y-75.692
X130.556Y-78.232
X130.556Y-80.772
X130.556Y-83.312
X130.556Y-85.852
X130.556Y-88.392
X130.556Y-90.932
X130.556Y-93.472
X130.556Y-96.012
X130.556Y-98.552
X130.556Y-101.092
X130.556Y-103.632
X130.556Y-106.172
X130.556Y-108.712
X130.556Y-111.252
X130.556Y-113.792
X130.556Y-116.332
X130.556Y-118.872
X130.556Y-121.412
X136.906Y-121.182
X139.446Y-121.182
X141.986Y-121.182
X148.336Y-73.152
X148.336Y-75.692
X148.336Y-78.232
X148.336Y-80.772
X148.336Y-83.312
X148.336Y-85.852
X148.336Y-88.392
X148.336Y-90.932
X148.336Y-93.472
X148.336Y-96.012
X148.336Y-98.552
X148.336Y-101.092
X148.336Y-103.632
X148.336Y-106.172
X148.336Y-108.712
X148.336Y-111.252
X148.336Y-113.792
X148.336Y-116.332
X148.336Y-118.872
X148.336Y-121.412
T4
G00X179.145Y-81.15
M15
G01X179.145Y-79.85
M16
G05
G00X190.345Y-81.15
M15
G01X190.345Y-79.85
M16
G05
M30
