%TF.GenerationSoftware,KiCad,Pcbnew,9.0.2*%
%TF.CreationDate,2025-07-05T11:42:38+02:00*%
%TF.ProjectId,test-stef_6_inter,74657374-2d73-4746-9566-5f365f696e74,rev?*%
%TF.SameCoordinates,Original*%
%TF.FileFunction,Copper,L1,Top*%
%TF.FilePolarity,Positive*%
%FSLAX46Y46*%
G04 Gerber Fmt 4.6, Leading zero omitted, Abs format (unit mm)*
G04 Created by KiCad (PCBNEW 9.0.2) date 2025-07-05 11:42:38*
%MOMM*%
%LPD*%
G01*
G04 APERTURE LIST*
%TA.AperFunction,ComponentPad*%
%ADD10O,1.700000X1.700000*%
%TD*%
%TA.AperFunction,SMDPad,CuDef*%
%ADD11R,3.500000X1.700000*%
%TD*%
%TA.AperFunction,ComponentPad*%
%ADD12R,1.700000X1.700000*%
%TD*%
%TA.AperFunction,ComponentPad*%
%ADD13O,3.400000X1.700000*%
%TD*%
%TA.AperFunction,SMDPad,CuDef*%
%ADD14R,1.700000X3.500000*%
%TD*%
%TA.AperFunction,ComponentPad*%
%ADD15O,3.000000X1.500000*%
%TD*%
%TA.AperFunction,ComponentPad*%
%ADD16O,1.500000X3.000000*%
%TD*%
%TA.AperFunction,ComponentPad*%
%ADD17R,2.000000X3.200000*%
%TD*%
G04 APERTURE END LIST*
D10*
%TO.P,U1,1,GPIO0*%
%TO.N,unconnected-(U1-GPIO0-Pad1)*%
X130556000Y-73152000D03*
D11*
X129656000Y-73152000D03*
D10*
%TO.P,U1,2,GPIO1*%
%TO.N,unconnected-(U1-GPIO1-Pad2)*%
X130556000Y-75692000D03*
D11*
X129656000Y-75692000D03*
D12*
%TO.P,U1,3,GND*%
%TO.N,unconnected-(U1-GND-Pad3)*%
X130556000Y-78232000D03*
D11*
X129656000Y-78232000D03*
D10*
%TO.P,U1,4,GPIO2*%
%TO.N,unconnected-(U1-GPIO2-Pad4)*%
X130556000Y-80772000D03*
D11*
X129656000Y-80772000D03*
D10*
%TO.P,U1,5,GPIO3*%
%TO.N,unconnected-(U1-GPIO3-Pad5)*%
X130556000Y-83312000D03*
D11*
X129656000Y-83312000D03*
D10*
%TO.P,U1,6,GPIO4*%
%TO.N,unconnected-(U1-GPIO4-Pad6)*%
X130556000Y-85852000D03*
D11*
X129656000Y-85852000D03*
D10*
%TO.P,U1,7,GPIO5*%
%TO.N,unconnected-(U1-GPIO5-Pad7)*%
X130556000Y-88392000D03*
D11*
X129656000Y-88392000D03*
D12*
%TO.P,U1,8,GND*%
%TO.N,unconnected-(U1-GND-Pad8)*%
X130556000Y-90932000D03*
D11*
X129656000Y-90932000D03*
D10*
%TO.P,U1,9,GPIO6*%
%TO.N,unconnected-(U1-GPIO6-Pad9)*%
X130556000Y-93472000D03*
D11*
X129656000Y-93472000D03*
D10*
%TO.P,U1,10,GPIO7*%
%TO.N,unconnected-(U1-GPIO7-Pad10)*%
X130556000Y-96012000D03*
D11*
X129656000Y-96012000D03*
D10*
%TO.P,U1,11,GPIO8*%
%TO.N,unconnected-(U1-GPIO8-Pad11)*%
X130556000Y-98552000D03*
D11*
X129656000Y-98552000D03*
D10*
%TO.P,U1,12,GPIO9*%
%TO.N,unconnected-(U1-GPIO9-Pad12)*%
X130556000Y-101092000D03*
D11*
X129656000Y-101092000D03*
D12*
%TO.P,U1,13,GND*%
%TO.N,unconnected-(U1-GND-Pad13)*%
X130556000Y-103632000D03*
D11*
X129656000Y-103632000D03*
D10*
%TO.P,U1,14,GPIO10*%
%TO.N,unconnected-(U1-GPIO10-Pad14)*%
X130556000Y-106172000D03*
D11*
X129656000Y-106172000D03*
D10*
%TO.P,U1,15,GPIO11*%
%TO.N,unconnected-(U1-GPIO11-Pad15)*%
X130556000Y-108712000D03*
D11*
X129656000Y-108712000D03*
D10*
%TO.P,U1,16,GPIO12*%
%TO.N,unconnected-(U1-GPIO12-Pad16)*%
X130556000Y-111252000D03*
D11*
X129656000Y-111252000D03*
D10*
%TO.P,U1,17,GPIO13*%
%TO.N,unconnected-(U1-GPIO13-Pad17)*%
X130556000Y-113792000D03*
D11*
X129656000Y-113792000D03*
D12*
%TO.P,U1,18,GND*%
%TO.N,unconnected-(U1-GND-Pad18)*%
X130556000Y-116332000D03*
D11*
X129656000Y-116332000D03*
D10*
%TO.P,U1,19,GPIO14*%
%TO.N,unconnected-(U1-GPIO14-Pad19)*%
X130556000Y-118872000D03*
D11*
X129656000Y-118872000D03*
D10*
%TO.P,U1,20,GPIO15*%
%TO.N,unconnected-(U1-GPIO15-Pad20)*%
X130556000Y-121412000D03*
D11*
X129656000Y-121412000D03*
D13*
%TO.P,U1,21,GPIO16*%
%TO.N,Net-(D4-K)*%
X148336000Y-121412000D03*
D11*
X149236000Y-121412000D03*
D13*
%TO.P,U1,22,GPIO17*%
%TO.N,Net-(D1-K)*%
X148336000Y-118872000D03*
D11*
X149236000Y-118872000D03*
D12*
%TO.P,U1,23,GND*%
%TO.N,unconnected-(U1-GND-Pad23)*%
X148336000Y-116332000D03*
D11*
X149236000Y-116332000D03*
D13*
%TO.P,U1,24,GPIO18*%
%TO.N,Net-(U1-GPIO18)*%
X148336000Y-113792000D03*
D11*
X149236000Y-113792000D03*
D13*
%TO.P,U1,25,GPIO19*%
%TO.N,Net-(U1-GPIO19)*%
X148336000Y-111252000D03*
D11*
X149236000Y-111252000D03*
D10*
%TO.P,U1,26,GPIO20*%
%TO.N,unconnected-(U1-GPIO20-Pad26)*%
X148336000Y-108712000D03*
D11*
X149236000Y-108712000D03*
D10*
%TO.P,U1,27,GPIO21*%
%TO.N,unconnected-(U1-GPIO21-Pad27)*%
X148336000Y-106172000D03*
D11*
X149236000Y-106172000D03*
D12*
%TO.P,U1,28,GND*%
%TO.N,unconnected-(U1-GND-Pad28)*%
X148336000Y-103632000D03*
D11*
X149236000Y-103632000D03*
D10*
%TO.P,U1,29,GPIO22*%
%TO.N,unconnected-(U1-GPIO22-Pad29)*%
X148336000Y-101092000D03*
D11*
X149236000Y-101092000D03*
D10*
%TO.P,U1,30,RUN*%
%TO.N,unconnected-(U1-RUN-Pad30)*%
X148336000Y-98552000D03*
D11*
X149236000Y-98552000D03*
D13*
%TO.P,U1,31,GPIO26_ADC0*%
%TO.N,Net-(U1-GPIO26_ADC0)*%
X148336000Y-96012000D03*
D11*
X149236000Y-96012000D03*
D13*
%TO.P,U1,32,GPIO27_ADC1*%
%TO.N,Net-(U1-GPIO27_ADC1)*%
X148336000Y-93472000D03*
D11*
X149236000Y-93472000D03*
D12*
%TO.P,U1,33,AGND*%
%TO.N,unconnected-(U1-AGND-Pad33)*%
X148336000Y-90932000D03*
D11*
X149236000Y-90932000D03*
D13*
%TO.P,U1,34,GPIO28_ADC2*%
%TO.N,Net-(U1-GPIO28_ADC2)*%
X148336000Y-88392000D03*
D11*
X149236000Y-88392000D03*
D10*
%TO.P,U1,35,ADC_VREF*%
%TO.N,unconnected-(U1-ADC_VREF-Pad35)*%
X148336000Y-85852000D03*
D11*
X149236000Y-85852000D03*
D10*
%TO.P,U1,36,3V3*%
%TO.N,unconnected-(U1-3V3-Pad36)*%
X148336000Y-83312000D03*
D11*
X149236000Y-83312000D03*
D10*
%TO.P,U1,37,3V3_EN*%
%TO.N,unconnected-(U1-3V3_EN-Pad37)*%
X148336000Y-80772000D03*
D11*
X149236000Y-80772000D03*
D13*
%TO.P,U1,38,GND*%
%TO.N,Net-(SW3-PadC)*%
X148336000Y-78232000D03*
D11*
X149236000Y-78232000D03*
D10*
%TO.P,U1,39,VSYS*%
%TO.N,unconnected-(U1-VSYS-Pad39)*%
X148336000Y-75692000D03*
D11*
X149236000Y-75692000D03*
D10*
%TO.P,U1,40,VBUS*%
%TO.N,unconnected-(U1-VBUS-Pad40)*%
X148336000Y-73152000D03*
D11*
X149236000Y-73152000D03*
D10*
%TO.P,U1,41,SWCLK*%
%TO.N,unconnected-(U1-SWCLK-Pad41)*%
X136906000Y-121182000D03*
D14*
X136906000Y-122082000D03*
D12*
%TO.P,U1,42,GND*%
%TO.N,unconnected-(U1-GND-Pad42)*%
X139446000Y-121182000D03*
D14*
X139446000Y-122082000D03*
D10*
%TO.P,U1,43,SWDIO*%
%TO.N,unconnected-(U1-SWDIO-Pad43)*%
X141986000Y-121182000D03*
D14*
X141986000Y-122082000D03*
%TD*%
D15*
%TO.P,D5,1,K*%
%TO.N,Net-(D4-K)*%
X184031000Y-122660000D03*
%TO.P,D5,2,A*%
%TO.N,Net-(D5-A)*%
X191651000Y-122660000D03*
%TD*%
%TO.P,D1,1,K*%
%TO.N,Net-(D1-K)*%
X164650000Y-103985000D03*
%TO.P,D1,2,A*%
%TO.N,Net-(D1-A)*%
X172270000Y-103985000D03*
%TD*%
D16*
%TO.P,SW3,A,A*%
%TO.N,Net-(U1-GPIO26_ADC0)*%
X182245000Y-88000000D03*
%TO.P,SW3,B,B*%
%TO.N,Net-(U1-GPIO27_ADC1)*%
X187245000Y-88000000D03*
%TO.P,SW3,C,C*%
%TO.N,Net-(SW3-PadC)*%
X184745000Y-88000000D03*
D17*
%TO.P,SW3,MP,MP*%
%TO.N,unconnected-(SW3-PadMP)*%
X179145000Y-80500000D03*
X190345000Y-80500000D03*
D15*
%TO.P,SW3,S1,S1*%
%TO.N,Net-(U1-GPIO28_ADC2)*%
X187245000Y-73500000D03*
%TO.P,SW3,S2,S2*%
%TO.N,Net-(SW3-PadC)*%
X182245000Y-73500000D03*
%TD*%
%TO.P,D4,1,K*%
%TO.N,Net-(D4-K)*%
X164650000Y-122660000D03*
%TO.P,D4,2,A*%
%TO.N,Net-(D4-A)*%
X172270000Y-122660000D03*
%TD*%
%TO.P,D2,1,K*%
%TO.N,Net-(D1-K)*%
X183904000Y-103985000D03*
%TO.P,D2,2,A*%
%TO.N,Net-(D2-A)*%
X191524000Y-103985000D03*
%TD*%
M02*
