%TF.GenerationSoftware,KiCad,Pcbnew,9.0.2*%
%TF.CreationDate,2025-11-16T09:52:10+01:00*%
%TF.ProjectId,test-stef_8_inter,74657374-2d73-4746-9566-5f385f696e74,rev?*%
%TF.SameCoordinates,Original*%
%TF.FileFunction,Copper,L2,Bot*%
%TF.FilePolarity,Positive*%
%FSLAX46Y46*%
G04 Gerber Fmt 4.6, Leading zero omitted, Abs format (unit mm)*
G04 Created by KiCad (PCBNEW 9.0.2) date 2025-11-16 09:52:10*
%MOMM*%
%LPD*%
G01*
G04 APERTURE LIST*
G04 Aperture macros list*
%AMRoundRect*
0 Rectangle with rounded corners*
0 $1 Rounding radius*
0 $2 $3 $4 $5 $6 $7 $8 $9 X,Y pos of 4 corners*
0 Add a 4 corners polygon primitive as box body*
4,1,4,$2,$3,$4,$5,$6,$7,$8,$9,$2,$3,0*
0 Add four circle primitives for the rounded corners*
1,1,$1+$1,$2,$3*
1,1,$1+$1,$4,$5*
1,1,$1+$1,$6,$7*
1,1,$1+$1,$8,$9*
0 Add four rect primitives between the rounded corners*
20,1,$1+$1,$2,$3,$4,$5,0*
20,1,$1+$1,$4,$5,$6,$7,0*
20,1,$1+$1,$6,$7,$8,$9,0*
20,1,$1+$1,$8,$9,$2,$3,0*%
G04 Aperture macros list end*
%TA.AperFunction,ComponentPad*%
%ADD10O,3.000000X1.500000*%
%TD*%
%TA.AperFunction,ComponentPad*%
%ADD11R,4.000000X2.000000*%
%TD*%
%TA.AperFunction,ComponentPad*%
%ADD12R,4.000000X2.100000*%
%TD*%
%TA.AperFunction,SMDPad,CuDef*%
%ADD13RoundRect,0.250000X-1.025000X-1.000000X1.025000X-1.000000X1.025000X1.000000X-1.025000X1.000000X0*%
%TD*%
%TA.AperFunction,ComponentPad*%
%ADD14O,1.700000X1.700000*%
%TD*%
%TA.AperFunction,ComponentPad*%
%ADD15R,1.700000X1.700000*%
%TD*%
%TA.AperFunction,ComponentPad*%
%ADD16O,3.400000X1.700000*%
%TD*%
%TA.AperFunction,Conductor*%
%ADD17C,0.600000*%
%TD*%
%TA.AperFunction,Conductor*%
%ADD18C,0.200000*%
%TD*%
G04 APERTURE END LIST*
D10*
%TO.P,SW3,A,A*%
%TO.N,Net-(U1-GPIO26_ADC0)*%
X189618000Y-80998000D03*
%TO.P,SW3,B,B*%
%TO.N,Net-(U1-GPIO27_ADC1)*%
X189618000Y-75998000D03*
%TO.P,SW3,C,C*%
%TO.N,Net-(SW3-PadC)*%
X189618000Y-78498000D03*
D11*
%TO.P,SW3,MP,MP*%
%TO.N,unconnected-(SW3-PadMP)*%
X182118000Y-84098000D03*
D12*
X182118000Y-72948000D03*
D10*
%TO.P,SW3,S1,S1*%
%TO.N,Net-(U1-GPIO28_ADC2)*%
X175118000Y-75998000D03*
%TO.P,SW3,S2,S2*%
%TO.N,Net-(SW3-PadC)*%
X175118000Y-80998000D03*
%TD*%
D13*
%TO.P,SW5,1,1*%
%TO.N,Net-(U1-GPIO19)*%
X180502000Y-115040000D03*
%TO.P,SW5,2,2*%
%TO.N,Net-(D5-A)*%
X193429000Y-112500000D03*
%TD*%
%TO.P,SW1,1,1*%
%TO.N,Net-(U1-GPIO18)*%
X161375000Y-95885000D03*
%TO.P,SW1,2,2*%
%TO.N,Net-(D1-A)*%
X174302000Y-93345000D03*
%TD*%
D14*
%TO.P,U1,1,GPIO0*%
%TO.N,unconnected-(U1-GPIO0-Pad1)*%
X130556000Y-73152000D03*
%TO.P,U1,2,GPIO1*%
%TO.N,unconnected-(U1-GPIO1-Pad2)*%
X130556000Y-75692000D03*
D15*
%TO.P,U1,3,GND*%
%TO.N,unconnected-(U1-GND-Pad3)*%
X130556000Y-78232000D03*
D14*
%TO.P,U1,4,GPIO2*%
%TO.N,unconnected-(U1-GPIO2-Pad4)*%
X130556000Y-80772000D03*
%TO.P,U1,5,GPIO3*%
%TO.N,unconnected-(U1-GPIO3-Pad5)*%
X130556000Y-83312000D03*
%TO.P,U1,6,GPIO4*%
%TO.N,unconnected-(U1-GPIO4-Pad6)*%
X130556000Y-85852000D03*
%TO.P,U1,7,GPIO5*%
%TO.N,unconnected-(U1-GPIO5-Pad7)*%
X130556000Y-88392000D03*
D15*
%TO.P,U1,8,GND*%
%TO.N,unconnected-(U1-GND-Pad8)*%
X130556000Y-90932000D03*
D14*
%TO.P,U1,9,GPIO6*%
%TO.N,unconnected-(U1-GPIO6-Pad9)*%
X130556000Y-93472000D03*
%TO.P,U1,10,GPIO7*%
%TO.N,unconnected-(U1-GPIO7-Pad10)*%
X130556000Y-96012000D03*
%TO.P,U1,11,GPIO8*%
%TO.N,unconnected-(U1-GPIO8-Pad11)*%
X130556000Y-98552000D03*
%TO.P,U1,12,GPIO9*%
%TO.N,unconnected-(U1-GPIO9-Pad12)*%
X130556000Y-101092000D03*
D15*
%TO.P,U1,13,GND*%
%TO.N,unconnected-(U1-GND-Pad13)*%
X130556000Y-103632000D03*
D14*
%TO.P,U1,14,GPIO10*%
%TO.N,unconnected-(U1-GPIO10-Pad14)*%
X130556000Y-106172000D03*
%TO.P,U1,15,GPIO11*%
%TO.N,unconnected-(U1-GPIO11-Pad15)*%
X130556000Y-108712000D03*
%TO.P,U1,16,GPIO12*%
%TO.N,unconnected-(U1-GPIO12-Pad16)*%
X130556000Y-111252000D03*
%TO.P,U1,17,GPIO13*%
%TO.N,unconnected-(U1-GPIO13-Pad17)*%
X130556000Y-113792000D03*
D15*
%TO.P,U1,18,GND*%
%TO.N,unconnected-(U1-GND-Pad18)*%
X130556000Y-116332000D03*
D14*
%TO.P,U1,19,GPIO14*%
%TO.N,unconnected-(U1-GPIO14-Pad19)*%
X130556000Y-118872000D03*
%TO.P,U1,20,GPIO15*%
%TO.N,unconnected-(U1-GPIO15-Pad20)*%
X130556000Y-121412000D03*
D16*
%TO.P,U1,21,GPIO16*%
%TO.N,Net-(D4-K)*%
X148336000Y-121412000D03*
%TO.P,U1,22,GPIO17*%
%TO.N,Net-(D1-K)*%
X148336000Y-118872000D03*
D15*
%TO.P,U1,23,GND*%
%TO.N,unconnected-(U1-GND-Pad23)*%
X148336000Y-116332000D03*
D16*
%TO.P,U1,24,GPIO18*%
%TO.N,Net-(U1-GPIO18)*%
X148336000Y-113792000D03*
%TO.P,U1,25,GPIO19*%
%TO.N,Net-(U1-GPIO19)*%
X148336000Y-111252000D03*
D14*
%TO.P,U1,26,GPIO20*%
%TO.N,unconnected-(U1-GPIO20-Pad26)*%
X148336000Y-108712000D03*
%TO.P,U1,27,GPIO21*%
%TO.N,unconnected-(U1-GPIO21-Pad27)*%
X148336000Y-106172000D03*
D15*
%TO.P,U1,28,GND*%
%TO.N,unconnected-(U1-GND-Pad28)*%
X148336000Y-103632000D03*
D14*
%TO.P,U1,29,GPIO22*%
%TO.N,unconnected-(U1-GPIO22-Pad29)*%
X148336000Y-101092000D03*
%TO.P,U1,30,RUN*%
%TO.N,unconnected-(U1-RUN-Pad30)*%
X148336000Y-98552000D03*
D16*
%TO.P,U1,31,GPIO26_ADC0*%
%TO.N,Net-(U1-GPIO26_ADC0)*%
X148336000Y-96012000D03*
%TO.P,U1,32,GPIO27_ADC1*%
%TO.N,Net-(U1-GPIO27_ADC1)*%
X148336000Y-93472000D03*
D15*
%TO.P,U1,33,AGND*%
%TO.N,unconnected-(U1-AGND-Pad33)*%
X148336000Y-90932000D03*
D16*
%TO.P,U1,34,GPIO28_ADC2*%
%TO.N,Net-(U1-GPIO28_ADC2)*%
X148336000Y-88392000D03*
D14*
%TO.P,U1,35,ADC_VREF*%
%TO.N,unconnected-(U1-ADC_VREF-Pad35)*%
X148336000Y-85852000D03*
%TO.P,U1,36,3V3*%
%TO.N,unconnected-(U1-3V3-Pad36)*%
X148336000Y-83312000D03*
%TO.P,U1,37,3V3_EN*%
%TO.N,unconnected-(U1-3V3_EN-Pad37)*%
X148336000Y-80772000D03*
D16*
%TO.P,U1,38,GND*%
%TO.N,Net-(SW3-PadC)*%
X148336000Y-78232000D03*
D14*
%TO.P,U1,39,VSYS*%
%TO.N,unconnected-(U1-VSYS-Pad39)*%
X148336000Y-75692000D03*
%TO.P,U1,40,VBUS*%
%TO.N,unconnected-(U1-VBUS-Pad40)*%
X148336000Y-73152000D03*
%TO.P,U1,41,SWCLK*%
%TO.N,unconnected-(U1-SWCLK-Pad41)*%
X136906000Y-121182000D03*
D15*
%TO.P,U1,42,GND*%
%TO.N,unconnected-(U1-GND-Pad42)*%
X139446000Y-121182000D03*
D14*
%TO.P,U1,43,SWDIO*%
%TO.N,unconnected-(U1-SWDIO-Pad43)*%
X141986000Y-121182000D03*
%TD*%
D10*
%TO.P,D5,1,K*%
%TO.N,Net-(D4-K)*%
X184031000Y-122660000D03*
%TO.P,D5,2,A*%
%TO.N,Net-(D5-A)*%
X191651000Y-122660000D03*
%TD*%
%TO.P,D1,1,K*%
%TO.N,Net-(D1-K)*%
X164650000Y-103985000D03*
%TO.P,D1,2,A*%
%TO.N,Net-(D1-A)*%
X172270000Y-103985000D03*
%TD*%
D13*
%TO.P,SW2,1,1*%
%TO.N,Net-(U1-GPIO19)*%
X180375000Y-95885000D03*
%TO.P,SW2,2,2*%
%TO.N,Net-(D2-A)*%
X193302000Y-93345000D03*
%TD*%
D10*
%TO.P,D4,1,K*%
%TO.N,Net-(D4-K)*%
X164650000Y-122660000D03*
%TO.P,D4,2,A*%
%TO.N,Net-(D4-A)*%
X172270000Y-122660000D03*
%TD*%
%TO.P,D2,1,K*%
%TO.N,Net-(D1-K)*%
X183904000Y-103985000D03*
%TO.P,D2,2,A*%
%TO.N,Net-(D2-A)*%
X191524000Y-103985000D03*
%TD*%
D13*
%TO.P,SW4,1,1*%
%TO.N,Net-(U1-GPIO18)*%
X161375000Y-115040000D03*
%TO.P,SW4,2,2*%
%TO.N,Net-(D4-A)*%
X174302000Y-112500000D03*
%TD*%
D17*
%TO.N,Net-(U1-GPIO26_ADC0)*%
X152908000Y-96012000D02*
X148336000Y-96012000D01*
X186436000Y-87122000D02*
X161798000Y-87122000D01*
X189618000Y-83940000D02*
X186436000Y-87122000D01*
X189618000Y-80998000D02*
X189618000Y-83940000D01*
X161798000Y-87122000D02*
X152908000Y-96012000D01*
%TO.N,Net-(SW3-PadC)*%
X192266000Y-78498000D02*
X189618000Y-78498000D01*
X193294000Y-77470000D02*
X192266000Y-78498000D01*
X193294000Y-74930000D02*
X193294000Y-77470000D01*
X188214000Y-72644000D02*
X191008000Y-72644000D01*
X179578000Y-75946000D02*
X184912000Y-75946000D01*
X184912000Y-75946000D02*
X188214000Y-72644000D01*
X176276000Y-72644000D02*
X179578000Y-75946000D01*
X173482000Y-72644000D02*
X176276000Y-72644000D01*
X191008000Y-72644000D02*
X193294000Y-74930000D01*
X148336000Y-78232000D02*
X167894000Y-78232000D01*
X167894000Y-78232000D02*
X173482000Y-72644000D01*
%TO.N,Net-(U1-GPIO27_ADC1)*%
X187146000Y-75998000D02*
X189618000Y-75998000D01*
X184785000Y-78359000D02*
X187146000Y-75998000D01*
X174117000Y-78359000D02*
X184785000Y-78359000D01*
X168021000Y-84455000D02*
X174117000Y-78359000D01*
X161925000Y-84455000D02*
X168021000Y-84455000D01*
X148336000Y-93472000D02*
X152908000Y-93472000D01*
X152908000Y-93472000D02*
X161925000Y-84455000D01*
%TO.N,Net-(SW3-PadC)*%
X187186000Y-78498000D02*
X189618000Y-78498000D01*
X184686000Y-80998000D02*
X187186000Y-78498000D01*
X183106000Y-80998000D02*
X184686000Y-80998000D01*
X175118000Y-80998000D02*
X183106000Y-80998000D01*
%TO.N,Net-(U1-GPIO28_ADC2)*%
X166769185Y-82481327D02*
X173252512Y-75998000D01*
X160596673Y-82481327D02*
X166769185Y-82481327D01*
X154686000Y-88392000D02*
X160596673Y-82481327D01*
X148336000Y-88392000D02*
X154686000Y-88392000D01*
X173252512Y-75998000D02*
X175118000Y-75998000D01*
%TO.N,Net-(D1-A)*%
X173015000Y-103985000D02*
X175500000Y-101500000D01*
X175500000Y-101500000D02*
X175500000Y-95658000D01*
X175500000Y-95658000D02*
X174302000Y-94460000D01*
X172270000Y-103985000D02*
X173015000Y-103985000D01*
%TO.N,Net-(U1-GPIO18)*%
X161375000Y-115316000D02*
X161375000Y-95885000D01*
X159793000Y-113792000D02*
X160555000Y-114554000D01*
X159793000Y-113792000D02*
X148336000Y-113792000D01*
X160555000Y-114554000D02*
X160555000Y-115951000D01*
%TO.N,Net-(D2-A)*%
X193302000Y-95250000D02*
X193302000Y-93345000D01*
X191524000Y-103985000D02*
X191524000Y-103774000D01*
X190500000Y-98052000D02*
X193302000Y-95250000D01*
X190500000Y-102750000D02*
X190500000Y-98052000D01*
X191524000Y-103774000D02*
X190500000Y-102750000D01*
%TO.N,Net-(D4-A)*%
X172720000Y-122936000D02*
X175500000Y-120156000D01*
X175500000Y-113974000D02*
X174302000Y-112776000D01*
X175500000Y-120156000D02*
X175500000Y-113974000D01*
X171450000Y-122936000D02*
X172720000Y-122936000D01*
%TO.N,Net-(D5-A)*%
X190750000Y-121500000D02*
X190750000Y-116250000D01*
X193429000Y-113571000D02*
X193429000Y-112500000D01*
X190750000Y-116250000D02*
X193429000Y-113571000D01*
D18*
X194500000Y-113571000D02*
X193429000Y-112500000D01*
D17*
X191651000Y-122401000D02*
X190750000Y-121500000D01*
X191651000Y-122660000D02*
X191651000Y-122401000D01*
%TO.N,Net-(D1-K)*%
X163250000Y-120750000D02*
X169750000Y-120750000D01*
X164650000Y-109650000D02*
X164650000Y-104775000D01*
X183144000Y-103985000D02*
X183129000Y-104000000D01*
X169750000Y-120750000D02*
X171500000Y-119000000D01*
X172050000Y-107950000D02*
X165100000Y-107950000D01*
X183129000Y-104000000D02*
X176000000Y-104000000D01*
X171500000Y-119000000D02*
X171500000Y-116500000D01*
X176000000Y-104000000D02*
X172050000Y-107950000D01*
X161372000Y-118872000D02*
X163250000Y-120750000D01*
D18*
X148741000Y-118467000D02*
X148336000Y-118872000D01*
D17*
X171500000Y-116500000D02*
X164650000Y-109650000D01*
D18*
X148106000Y-119102000D02*
X148336000Y-118872000D01*
D17*
X183904000Y-103985000D02*
X183144000Y-103985000D01*
X148336000Y-118872000D02*
X161372000Y-118872000D01*
%TO.N,Net-(D4-K)*%
X183134000Y-122936000D02*
X176784000Y-122936000D01*
X148336000Y-121412000D02*
X155956000Y-121412000D01*
X179451000Y-122936000D02*
X183134000Y-122936000D01*
X164650000Y-123618000D02*
X166000000Y-124968000D01*
X158496000Y-122936000D02*
X156972000Y-121412000D01*
X176784000Y-122936000D02*
X174752000Y-124968000D01*
X164650000Y-122936000D02*
X164650000Y-123618000D01*
X174752000Y-124968000D02*
X166000000Y-124968000D01*
X156972000Y-121412000D02*
X155956000Y-121412000D01*
X163830000Y-122936000D02*
X158496000Y-122936000D01*
%TO.N,Net-(U1-GPIO19)*%
X161925000Y-88900000D02*
X174900000Y-88900000D01*
X174900000Y-88900000D02*
X180375000Y-94375000D01*
X180502000Y-112614000D02*
X180502000Y-115316000D01*
X148336000Y-111252000D02*
X156083000Y-111252000D01*
X156273500Y-111061500D02*
X157480000Y-109855000D01*
X180375000Y-94375000D02*
X180375000Y-101000000D01*
X181375000Y-102000000D02*
X185000000Y-102000000D01*
X157480000Y-93345000D02*
X161925000Y-88900000D01*
X187500000Y-104500000D02*
X187500000Y-105616000D01*
D18*
X156083000Y-111252000D02*
X156273500Y-111061500D01*
D17*
X157480000Y-109855000D02*
X157480000Y-93345000D01*
X187500000Y-105616000D02*
X180502000Y-112614000D01*
X180375000Y-101000000D02*
X181375000Y-102000000D01*
X185000000Y-102000000D02*
X187500000Y-104500000D01*
D18*
%TO.N,Net-(SW3-PadC)*%
X183106000Y-80998000D02*
X183134000Y-81026000D01*
%TD*%
M02*
