%TF.GenerationSoftware,KiCad,Pcbnew,9.0.2*%
%TF.CreationDate,2025-11-16T09:52:10+01:00*%
%TF.ProjectId,test-stef_8_inter,74657374-2d73-4746-9566-5f385f696e74,rev?*%
%TF.SameCoordinates,Original*%
%TF.FileFunction,Soldermask,Top*%
%TF.FilePolarity,Negative*%
%FSLAX46Y46*%
G04 Gerber Fmt 4.6, Leading zero omitted, Abs format (unit mm)*
G04 Created by KiCad (PCBNEW 9.0.2) date 2025-11-16 09:52:10*
%MOMM*%
%LPD*%
G01*
G04 APERTURE LIST*
%ADD10O,3.000000X1.500000*%
%ADD11R,4.000000X2.000000*%
%ADD12R,4.000000X2.100000*%
%ADD13C,2.500000*%
%ADD14C,1.750000*%
%ADD15C,3.050000*%
%ADD16C,4.000000*%
%ADD17O,1.800000X1.800000*%
%ADD18O,1.500000X1.500000*%
%ADD19O,4.000000X4.000000*%
%ADD20O,1.700000X1.700000*%
%ADD21R,3.500000X1.700000*%
%ADD22R,1.700000X1.700000*%
%ADD23O,3.400000X1.700000*%
%ADD24R,1.700000X3.500000*%
G04 APERTURE END LIST*
D10*
%TO.C,SW3*%
X189618000Y-80998000D03*
X189618000Y-75998000D03*
X189618000Y-78498000D03*
D11*
X182118000Y-84098000D03*
D12*
X182118000Y-72948000D03*
D10*
X175118000Y-75998000D03*
X175118000Y-80998000D03*
%TD*%
D13*
%TO.C,Fix1*%
X178054000Y-107950000D03*
%TD*%
D14*
%TO.C,SW5*%
X182507000Y-117580000D03*
D15*
X183777000Y-115040000D03*
D16*
X187587000Y-117580000D03*
D15*
X190127000Y-112500000D03*
D14*
X192667000Y-117580000D03*
%TD*%
%TO.C,SW1*%
X163380000Y-98425000D03*
D15*
X164650000Y-95885000D03*
D16*
X168460000Y-98425000D03*
D15*
X171000000Y-93345000D03*
D14*
X173540000Y-98425000D03*
%TD*%
D17*
%TO.C,U1*%
X136721000Y-73282000D03*
D18*
X137021000Y-76312000D03*
D19*
X139446000Y-85282000D03*
X139446000Y-108282000D03*
D18*
X141871000Y-76312000D03*
D17*
X142171000Y-73282000D03*
D20*
X130556000Y-73152000D03*
D21*
X129656000Y-73152000D03*
D20*
X130556000Y-75692000D03*
D21*
X129656000Y-75692000D03*
D22*
X130556000Y-78232000D03*
D21*
X129656000Y-78232000D03*
D20*
X130556000Y-80772000D03*
D21*
X129656000Y-80772000D03*
D20*
X130556000Y-83312000D03*
D21*
X129656000Y-83312000D03*
D20*
X130556000Y-85852000D03*
D21*
X129656000Y-85852000D03*
D20*
X130556000Y-88392000D03*
D21*
X129656000Y-88392000D03*
D22*
X130556000Y-90932000D03*
D21*
X129656000Y-90932000D03*
D20*
X130556000Y-93472000D03*
D21*
X129656000Y-93472000D03*
D20*
X130556000Y-96012000D03*
D21*
X129656000Y-96012000D03*
D20*
X130556000Y-98552000D03*
D21*
X129656000Y-98552000D03*
D20*
X130556000Y-101092000D03*
D21*
X129656000Y-101092000D03*
D22*
X130556000Y-103632000D03*
D21*
X129656000Y-103632000D03*
D20*
X130556000Y-106172000D03*
D21*
X129656000Y-106172000D03*
D20*
X130556000Y-108712000D03*
D21*
X129656000Y-108712000D03*
D20*
X130556000Y-111252000D03*
D21*
X129656000Y-111252000D03*
D20*
X130556000Y-113792000D03*
D21*
X129656000Y-113792000D03*
D22*
X130556000Y-116332000D03*
D21*
X129656000Y-116332000D03*
D20*
X130556000Y-118872000D03*
D21*
X129656000Y-118872000D03*
D20*
X130556000Y-121412000D03*
D21*
X129656000Y-121412000D03*
D23*
X148336000Y-121412000D03*
D21*
X149236000Y-121412000D03*
D23*
X148336000Y-118872000D03*
D21*
X149236000Y-118872000D03*
D22*
X148336000Y-116332000D03*
D21*
X149236000Y-116332000D03*
D23*
X148336000Y-113792000D03*
D21*
X149236000Y-113792000D03*
D23*
X148336000Y-111252000D03*
D21*
X149236000Y-111252000D03*
D20*
X148336000Y-108712000D03*
D21*
X149236000Y-108712000D03*
D20*
X148336000Y-106172000D03*
D21*
X149236000Y-106172000D03*
D22*
X148336000Y-103632000D03*
D21*
X149236000Y-103632000D03*
D20*
X148336000Y-101092000D03*
D21*
X149236000Y-101092000D03*
D20*
X148336000Y-98552000D03*
D21*
X149236000Y-98552000D03*
D23*
X148336000Y-96012000D03*
D21*
X149236000Y-96012000D03*
D23*
X148336000Y-93472000D03*
D21*
X149236000Y-93472000D03*
D22*
X148336000Y-90932000D03*
D21*
X149236000Y-90932000D03*
D23*
X148336000Y-88392000D03*
D21*
X149236000Y-88392000D03*
D20*
X148336000Y-85852000D03*
D21*
X149236000Y-85852000D03*
D20*
X148336000Y-83312000D03*
D21*
X149236000Y-83312000D03*
D20*
X148336000Y-80772000D03*
D21*
X149236000Y-80772000D03*
D23*
X148336000Y-78232000D03*
D21*
X149236000Y-78232000D03*
D20*
X148336000Y-75692000D03*
D21*
X149236000Y-75692000D03*
D20*
X148336000Y-73152000D03*
D21*
X149236000Y-73152000D03*
D20*
X136906000Y-121182000D03*
D24*
X136906000Y-122082000D03*
D22*
X139446000Y-121182000D03*
D24*
X139446000Y-122082000D03*
D20*
X141986000Y-121182000D03*
D24*
X141986000Y-122082000D03*
%TD*%
D10*
%TO.C,D5*%
X184031000Y-122660000D03*
X191651000Y-122660000D03*
%TD*%
D13*
%TO.C,Fix2*%
X139446000Y-97282000D03*
%TD*%
D10*
%TO.C,D1*%
X164650000Y-103985000D03*
X172270000Y-103985000D03*
%TD*%
D14*
%TO.C,SW2*%
X182380000Y-98425000D03*
D15*
X183650000Y-95885000D03*
D16*
X187460000Y-98425000D03*
D15*
X190000000Y-93345000D03*
D14*
X192540000Y-98425000D03*
%TD*%
D10*
%TO.C,D4*%
X164650000Y-122660000D03*
X172270000Y-122660000D03*
%TD*%
%TO.C,D2*%
X183904000Y-103985000D03*
X191524000Y-103985000D03*
%TD*%
D14*
%TO.C,SW4*%
X163380000Y-117580000D03*
D15*
X164650000Y-115040000D03*
D16*
X168460000Y-117580000D03*
D15*
X171000000Y-112500000D03*
D14*
X173540000Y-117580000D03*
%TD*%
D13*
%TO.C,Fix*%
X163830000Y-75184000D03*
%TD*%
M02*
